<svg xmlns="http://www.w3.org/2000/svg" width="16.575" height="18.942" viewBox="0 0 16.575 18.942">
  <path id="bell-solid" d="M8.287,18.942a2.367,2.367,0,0,0,2.367-2.368H5.921A2.367,2.367,0,0,0,8.287,18.942ZM16.256,13.4C15.541,12.636,14.2,11.48,14.2,7.7A5.842,5.842,0,0,0,9.47,1.955V1.184a1.183,1.183,0,1,0-2.366,0v.771A5.842,5.842,0,0,0,2.371,7.7c0,3.785-1.337,4.94-2.052,5.708a1.156,1.156,0,0,0-.319.8,1.185,1.185,0,0,0,1.188,1.184h14.2a1.185,1.185,0,0,0,1.188-1.184A1.155,1.155,0,0,0,16.256,13.4Z" transform="translate(0)" fill="#dfdfdf"/>
</svg>
